<?xml version="1.0" encoding="UTF-8"?>
<svg version="1.1" xmlns="http://www.w3.org/2000/svg" width="320" height="320">
<path d="M0 0 C1.98010412 -0.00813781 3.96019916 -0.01882516 5.9402771 -0.03186035 C11.29977526 -0.05914093 16.65857804 -0.0486393 22.01808786 -0.02958584 C27.63356768 -0.01436237 33.2489892 -0.02849184 38.86447144 -0.03790283 C48.29126647 -0.0488074 57.71777912 -0.03446083 67.14453125 -0.00585938 C78.03805967 0.026811 88.93091459 0.01620051 99.82442677 -0.01681781 C109.18605755 -0.04405531 118.54748573 -0.04788377 127.90914333 -0.03218579 C133.49680362 -0.0228393 139.08414739 -0.02156376 144.67178726 -0.04140472 C149.9235726 -0.05875199 155.1744901 -0.04668801 160.42618179 -0.01203918 C162.35185302 -0.00411423 164.27759746 -0.0063697 166.20323944 -0.01961517 C168.83529658 -0.03604907 171.46458476 -0.01541218 174.09646606 0.01446533 C175.23562995 -0.00561116 175.23562995 -0.00561116 176.39780724 -0.02609324 C181.66722762 0.08969901 184.34603227 1.6682006 188.17301548 5.25693107 C191.98630694 9.47578509 191.82206019 14.0648345 191.74169922 19.48339844 C191.73886932 20.20879318 191.73603943 20.93418793 191.73312378 21.68156433 C191.72198471 23.98417087 191.69689238 26.28637946 191.67138672 28.58886719 C191.66134878 30.15591884 191.65222435 31.72297662 191.64404297 33.29003906 C191.62377272 37.11908944 191.58461382 40.94728615 191.54638672 44.77636719 C197.81638672 44.77636719 204.08638672 44.77636719 210.54638672 44.77636719 C210.54638672 125.29636719 210.54638672 205.81636719 210.54638672 288.77636719 C151.51763672 288.83824219 151.51763672 288.83824219 91.29638672 288.90136719 C78.85532227 288.9195752 66.41425781 288.9377832 53.59619141 288.95654297 C38.44335937 288.96557617 38.44335937 288.96557617 31.35723877 288.96725464 C26.39156316 288.96912339 21.42593001 288.97663997 16.46026611 288.98751831 C10.13391859 289.0011948 3.80763316 289.00535723 -2.51872778 289.00251174 C-4.84528497 289.00310711 -7.17184424 289.00709753 -9.49838877 289.01479745 C-12.63208238 289.02469014 -15.76553219 289.02236739 -18.89923096 289.01687622 C-19.81725368 289.02270155 -20.73527641 289.02852688 -21.68111801 289.03452873 C-22.5218763 289.03054699 -23.36263458 289.02656525 -24.22887039 289.02246284 C-25.31562998 289.02360201 -25.31562998 289.02360201 -26.4243443 289.02476418 C-28.84216828 288.72880529 -30.38966361 288.06390284 -32.45361328 286.77636719 C-36.22878404 281.70685217 -37.5671388 278.18327131 -37.65893555 271.92797852 C-37.67888077 270.72695999 -37.69882599 269.52594147 -37.71937561 268.28852844 C-37.7360881 266.99158554 -37.7528006 265.69464264 -37.77001953 264.35839844 C-37.79059621 263.01746489 -37.81159288 261.67653773 -37.83299255 260.33561707 C-37.88813955 256.8093483 -37.93758123 253.2830217 -37.98583984 249.75665283 C-38.03610878 246.15705225 -38.09176667 242.55753546 -38.14697266 238.95800781 C-38.254464 231.89753367 -38.35592893 224.83698437 -38.45361328 217.77636719 C-39.08452881 218.17017578 -39.71544434 218.56398437 -40.36547852 218.96972656 C-43.20592654 220.74091268 -46.04848508 222.50868243 -48.89111328 224.27636719 C-49.88433594 224.89640625 -50.87755859 225.51644531 -51.90087891 226.15527344 C-52.84511719 226.74179688 -53.78935547 227.32832031 -54.76220703 227.93261719 C-55.63675537 228.47724609 -56.51130371 229.021875 -57.41235352 229.58300781 C-59.45361328 230.77636719 -59.45361328 230.77636719 -60.45361328 230.77636719 C-61.20306258 204.37813356 -61.76632764 177.981505 -62.11160278 151.57475567 C-62.27623359 139.31126364 -62.50035734 127.05439997 -62.86767578 114.79516602 C-63.1879164 104.10199996 -63.39335127 93.41363217 -63.46444511 82.7158044 C-63.50598885 77.05462136 -63.60252845 71.40715416 -63.8369751 65.75040245 C-65.1767118 32.15195505 -65.1767118 32.15195505 -59.0087738 23.82601595 C-51.6762407 16.16903156 -41.82035918 11.99412583 -32.06994438 8.29722404 C-28.82716774 6.93346643 -26.78990995 5.6310899 -24.14651489 3.39012146 C-17.34963648 -1.43574782 -7.95462583 -0.05484139 0 0 Z " fill="#39A5CC" transform="translate(84.45361328125,15.2236328125)"/>
<path d="M0 0 C6.27 0 12.54 0 19 0 C19 80.52 19 161.04 19 244 C-40.02875 244.061875 -40.02875 244.061875 -100.25 244.125 C-112.69106445 244.14320801 -125.13212891 244.16141602 -137.95019531 244.18017578 C-153.10302734 244.18920898 -153.10302734 244.18920898 -160.18914795 244.19088745 C-165.15482356 244.1927562 -170.12045671 244.20027278 -175.08612061 244.21115112 C-181.41246813 244.22482762 -187.73875356 244.22899005 -194.0651145 244.22614455 C-196.39167169 244.22673992 -198.71823096 244.23073034 -201.04477549 244.23843026 C-204.17846909 244.24832295 -207.31191891 244.24600021 -210.44561768 244.24050903 C-211.3636404 244.24633436 -212.28166313 244.25215969 -213.22750473 244.25816154 C-214.48864216 244.25218893 -214.48864216 244.25218893 -215.77525711 244.24609566 C-216.4997635 244.2468551 -217.22426989 244.24761454 -217.97073102 244.24839699 C-220.388555 243.9524381 -221.93605033 243.28753565 -224 242 C-227.79208494 236.90777165 -229.11095428 233.34360925 -229.25634766 227.06323242 C-229.28532135 225.84153854 -229.31429504 224.61984467 -229.34414673 223.36112976 C-229.43408637 218.51209405 -229.50144646 213.66273025 -229.54844093 208.81309032 C-229.58422182 205.13335128 -229.63758098 201.45579536 -229.73388672 197.77709961 C-229.82687762 194.21371495 -229.8753829 190.65226147 -229.89283371 187.08773232 C-229.91371413 185.0765242 -229.97914416 183.06593745 -230.0453186 181.05570984 C-230.02703625 172.22168618 -230.02703625 172.22168618 -227.35614014 169.04458618 C-225.19287109 167.55981445 -225.19287109 167.55981445 -222.776968 166.41275406 C-219.97682422 165.07937173 -219.97682422 165.07937173 -217.58381462 163.24670601 C-208.02262796 156.50996204 -198.93974239 157.05124578 -187.63574219 157.20532227 C-185.59458993 157.20729973 -183.5534327 157.2061827 -181.51228333 157.20222473 C-176.00239648 157.2002258 -170.49358802 157.24122538 -164.98395061 157.29024243 C-159.21447483 157.33416102 -153.44497116 157.3381261 -147.675354 157.34642029 C-136.76385707 157.36813038 -125.85285423 157.42551048 -114.94157434 157.49586672 C-102.51354928 157.57425424 -90.08549997 157.61263294 -77.65728903 157.64773476 C-52.104586 157.72079696 -26.55232075 157.84383053 -1 158 C-1.00138269 156.78767873 -1.00138269 156.78767873 -1.00279331 155.55086613 C-1.02484691 135.91425915 -1.04141075 116.27765464 -1.05181217 96.64103794 C-1.0569755 87.14504617 -1.06401889 77.64906265 -1.07543945 68.15307617 C-1.08538517 59.87947155 -1.09185316 51.60587289 -1.09408849 43.33226246 C-1.09539579 38.9486641 -1.09848285 34.56508284 -1.10573006 30.18148994 C-1.11248851 26.060365 -1.11461732 21.93926427 -1.11310768 17.81813431 C-1.11338409 16.30113659 -1.11539025 14.7841381 -1.11920547 13.26714516 C-1.12414001 11.20492699 -1.1229992 9.14280174 -1.12025452 7.08058167 C-1.12163721 5.34530637 -1.12163721 5.34530637 -1.12304783 3.57497501 C-1 1 -1 1 0 0 Z " fill="#36687F" transform="translate(276,60)"/>
<path d="M0 0 C0.46768403 26.25976357 0.82011366 52.51890125 1.03624344 78.78199387 C1.13927655 90.97733709 1.27966929 103.17008965 1.50878906 115.36376953 C1.70845372 125.99494679 1.83723404 136.62424808 1.8817699 147.25724816 C1.90779934 152.88601777 1.96870581 158.50942224 2.11460114 164.13646698 C2.97116442 198.45900638 2.97116442 198.45900638 -1.97792053 206.02296448 C-6.61416283 210.43369995 -11.64292869 212.61003534 -17.75248337 214.28505325 C-20.74787782 215.23790383 -22.72821937 216.86668004 -25 219 C-26.44549516 219.96003422 -27.90899622 220.89360421 -29.390625 221.796875 C-30.18210937 222.28027344 -30.97359375 222.76367188 -31.7890625 223.26171875 C-32.60117187 223.75285156 -33.41328125 224.24398437 -34.25 224.75 C-35.07757813 225.25660156 -35.90515625 225.76320312 -36.7578125 226.28515625 C-42.86577662 230 -42.86577662 230 -44 230 C-44.7494493 203.60176637 -45.31271435 177.20513781 -45.6579895 150.79838848 C-45.82262031 138.53489645 -46.04674406 126.27803279 -46.4140625 114.01879883 C-46.73430312 103.32563277 -46.93973799 92.63726498 -47.01083183 81.93943721 C-47.05237557 76.27825417 -47.14891517 70.63078697 -47.38336182 64.97403526 C-48.72309851 31.37558786 -48.72309851 31.37558786 -42.55516052 23.04964876 C-35.23248973 15.40296307 -25.40136326 11.25471731 -15.68060303 7.52388954 C-11.57907466 5.8257232 -8.21193252 3.7364118 -4.68630981 1.06794262 C-3 0 -3 0 0 0 Z " fill="#7EC4DD" transform="translate(68,16)"/>
<path d="M0 0 C1.38699097 0.01522705 1.38699097 0.01522705 2.80200195 0.03076172 C14.62430035 0.29937933 24.92476629 3.0470015 33.734375 11.3671875 C40.24808708 18.49997139 41.34384424 24.96754878 41.06640625 34.41015625 C40.33432423 40.98593721 37.62191615 44.6060372 32.87890625 48.98828125 C29.29990478 51.81800402 26.25512 53.03621073 21.625 53.375 C21.625 54.035 21.625 54.695 21.625 55.375 C22.34816406 55.32214844 23.07132812 55.26929688 23.81640625 55.21484375 C29.48428308 55.53804674 34.50739563 59.36132714 38.53515625 63.19140625 C45.64608196 71.28073943 45.31182114 78.79637712 44.81591797 89.18359375 C44.43350913 93.57298216 43.15235404 96.81097679 40.625 100.375 C39.94824219 101.39400391 39.94824219 101.39400391 39.2578125 102.43359375 C33.33015232 110.23392269 23.36135805 115.75106476 13.671875 117.16015625 C-2.62589439 118.30935794 -18.16084917 118.41806316 -31.375 107.375 C-37.4861749 102.06093487 -40.04800098 94.99437731 -42.375 87.375 C-42.375 86.385 -42.375 85.395 -42.375 84.375 C-33.465 84.375 -24.555 84.375 -15.375 84.375 C-14.385 87.015 -13.395 89.655 -12.375 92.375 C-9.46829606 95.51738263 -7.30320455 96.26929699 -3.08203125 96.75 C4.45170181 97.13917858 4.45170181 97.13917858 11.375 94.625 C15.51403007 90.48596993 15.93792172 87.25423445 16 81.4375 C16.04253906 79.62958984 16.04253906 79.62958984 16.0859375 77.78515625 C15.54334498 73.77089128 14.44599257 72.22145279 11.625 69.375 C6.59072086 66.0188139 1.19509182 66.13354321 -4.6875 65.8125 C-7.224375 65.668125 -9.76125 65.52375 -12.375 65.375 C-12.375 59.105 -12.375 52.835 -12.375 46.375 C-4.75 46.0625 -4.75 46.0625 -2.38427734 45.98706055 C2.23964858 45.74582755 5.66068362 44.9762106 9.625 42.375 C12.05618903 39.16160233 11.98565928 35.81647688 12.0625 31.875 C12.10246094 30.7509375 12.14242187 29.626875 12.18359375 28.46875 C11.87785272 25.24968742 11.87785272 25.24968742 9.53515625 23.00390625 C4.21659859 20.02694176 -1.46884865 20.56255095 -7.375 21.375 C-12.24410656 24.5586466 -12.46399634 26.64198903 -14.375 32.375 C-22.955 32.375 -31.535 32.375 -40.375 32.375 C-40.375 23.66208136 -38.08526186 17.93956339 -32.125 11.5625 C-23.07282676 3.23528435 -12.10259394 -0.19219233 0 0 Z " fill="#FBFDFE" transform="translate(168.375,58.625)"/>
<path d="M0 0 C4.62 0 9.24 0 14 0 C16.64 10.23 19.28 20.46 22 31 C23.7746369 27.45072619 24.75551132 24.5154 25.7265625 20.703125 C26.0359375 19.49785156 26.3453125 18.29257812 26.6640625 17.05078125 C26.98117188 15.79652344 27.29828125 14.54226562 27.625 13.25 C27.94984375 11.98027344 28.2746875 10.71054688 28.609375 9.40234375 C29.41031245 6.26926488 30.2056895 3.13476551 31 0 C35.62 0 40.24 0 45 0 C45 14.19 45 28.38 45 43 C41.37 43 37.74 43 34 43 C33.67 35.74 33.34 28.48 33 21 C31.39558959 27.86517081 31.39558959 27.86517081 29.79907227 34.73217773 C29.59854248 35.58239502 29.3980127 36.4326123 29.19140625 37.30859375 C28.88505249 38.62041626 28.88505249 38.62041626 28.57250977 39.95874023 C28 42 28 42 27 43 C25.31391034 43.07205511 23.62499341 43.08386068 21.9375 43.0625 C21.01839844 43.05347656 20.09929687 43.04445313 19.15234375 43.03515625 C18.44207031 43.02355469 17.73179688 43.01195312 17 43 C16.18709249 39.91677396 15.37474556 36.83340049 14.5625 33.75 C14.33240234 32.87730469 14.10230469 32.00460937 13.86523438 31.10546875 C13.64287109 30.26113281 13.42050781 29.41679687 13.19140625 28.546875 C12.98717041 27.77182617 12.78293457 26.99677734 12.57250977 26.19824219 C12.03529356 24.13551525 11.5169733 22.0678932 11 20 C10.67 27.59 10.34 35.18 10 43 C6.7 43 3.4 43 0 43 C0 28.81 0 14.62 0 0 Z " fill="#EFF3F5" transform="translate(108,238)"/>
<path d="M0 0 C1.93166016 0.01740234 1.93166016 0.01740234 3.90234375 0.03515625 C5.19269531 0.04417969 6.48304688 0.05320313 7.8125 0.0625 C8.81152344 0.07410156 9.81054688 0.08570313 10.83984375 0.09765625 C18.67471368 23.22264132 18.67471368 23.22264132 21.83984375 33.97265625 C22.1505481 35.02247681 22.1505481 35.02247681 22.4675293 36.09350586 C23.83984375 40.83406529 23.83984375 40.83406529 23.83984375 43.09765625 C20.20984375 43.09765625 16.57984375 43.09765625 12.83984375 43.09765625 C10.83984375 38.09765625 10.83984375 38.09765625 10.83984375 34.09765625 C6.21984375 34.09765625 1.59984375 34.09765625 -3.16015625 34.09765625 C-3.49015625 37.06765625 -3.82015625 40.03765625 -4.16015625 43.09765625 C-7.79015625 43.09765625 -11.42015625 43.09765625 -15.16015625 43.09765625 C-14.50645425 36.7638139 -12.70210221 30.96652278 -10.78515625 24.91015625 C-8.52313478 17.64848143 -6.35689924 10.4301856 -4.66796875 3.01171875 C-3.8176597 -0.19329228 -3.50780179 0.10839931 0 0 Z " fill="#F4F7F8" transform="translate(173.16015625,237.90234375)"/>
<path d="M0 0 C3.63 0 7.26 0 11 0 C12.00508801 1.78881736 13.00392736 3.58114696 14 5.375 C14.556875 6.37273437 15.11375 7.37046875 15.6875 8.3984375 C17 11 17 11 17 13 C17.66 13 18.32 13 19 13 C19.2475 12.154375 19.495 11.30875 19.75 10.4375 C21.13973627 6.61572526 22.91120838 3.48131937 25 0 C28.63 0 32.26 0 36 0 C34.04944357 4.87639106 31.59886357 8.89450863 28.65820312 13.18359375 C26.47364028 16.52947025 26.47364028 16.52947025 26.24462891 20.40917969 C27.03332898 23.11431387 28.06186063 25.19296045 29.50390625 27.609375 C29.99697266 28.44597656 30.49003906 29.28257812 30.99804688 30.14453125 C31.51431641 31.00433594 32.03058594 31.86414063 32.5625 32.75 C33.58636348 34.47293259 34.60859332 36.19683741 35.62890625 37.921875 C36.3106189 39.06027832 36.3106189 39.06027832 37.00610352 40.22167969 C38 42 38 42 38 43 C34.04 43 30.08 43 26 43 C23.36 38.38 20.72 33.76 18 29 C15.64662777 32.13782964 14.00315795 34.77729719 12.3125 38.25 C11.549375 39.8175 10.78625 41.385 10 43 C6.04 43 2.08 43 -2 43 C-0.60435949 39.51089873 0.4021523 37.16287483 2.41796875 34.1875 C3.09182617 33.16269531 3.09182617 33.16269531 3.77929688 32.1171875 C4.7217087 30.70030203 5.67232258 29.28883942 6.63085938 27.8828125 C9.23782083 23.98196322 9.23782083 23.98196322 10.0859375 19.48046875 C8.51228429 15.88597312 6.53454835 12.62345996 4.4375 9.3125 C0 2.24886191 0 2.24886191 0 0 Z " fill="#F5F7F8" transform="translate(202,238)"/>
<path d="M0 0 C0.66 0 1.32 0 2 0 C2.50588147 1.91512272 3.00448391 3.83216922 3.5 5.75 C3.7784375 6.81734375 4.056875 7.8846875 4.34375 8.984375 C5 12 5 12 5 16 C2.36 16 -0.28 16 -3 16 C-2.40984815 10.49191603 -1.43336231 5.35121931 0 0 Z " fill="#48768A" transform="translate(176,248)"/>
<path d="M0 0 C0.33 0 0.66 0 1 0 C1.29296875 6.0546875 1.29296875 6.0546875 1 8 C0.01 8.66 -0.98 9.32 -2 10 C-1.125 2.25 -1.125 2.25 0 0 Z " fill="#578194" transform="translate(141,257)"/>
</svg>
