<?xml version="1.0" encoding="UTF-8"?>
<svg version="1.1" xmlns="http://www.w3.org/2000/svg" width="744" height="652">
<path d="M0 0 C1.53828712 -0.01210762 1.53828712 -0.01210762 3.10765076 -0.02445984 C5.28032773 -0.03825608 7.45302596 -0.04899806 9.62573242 -0.05688477 C11.80418446 -0.06830038 13.98261091 -0.08858233 16.16088867 -0.1184082 C36.00628348 -0.38939193 54.55857581 1.84372745 73.49609375 7.98828125 C75.12562988 8.50588013 75.12562988 8.50588013 76.78808594 9.03393555 C109.68823405 19.6745488 141.61737018 35.50766494 167.1171875 59.1953125 C168.68276548 60.61437192 170.30145958 61.97610914 171.95703125 63.2890625 C195.10955457 81.98341386 207.2139937 115.44429324 210.62109375 144.05078125 C214.28229995 179.16403696 206.34532752 211.83972176 195.015625 244.81640625 C194.66113533 245.85236687 194.66113533 245.85236687 194.29948425 246.90925598 C193.17690177 250.13439481 192.00332051 253.23448751 190.37109375 256.23828125 C191.24121094 256.15126953 191.24121094 256.15126953 192.12890625 256.0625 C196.30455295 255.82133229 199.40824687 255.72231705 202.80859375 258.36328125 C207.39570757 263.50979919 207.82934959 268.48141981 207.68359375 275.16796875 C206.88239526 283.03974388 204.51511011 291.39454474 199.41015625 297.5859375 C191.20709284 304.2332475 179.60079895 305.88706786 169.37109375 305.23828125 C166.32561139 304.72171713 163.35217972 304.04475861 160.37109375 303.23828125 C160.12617187 303.77582031 159.88125 304.31335938 159.62890625 304.8671875 C152.95006304 317.4574292 142.70683609 328.84162128 134.03051758 340.08398438 C132.68965804 341.82471478 131.36559858 343.57837818 130.046875 345.3359375 C128.37109375 347.23828125 128.37109375 347.23828125 125.93359375 347.61328125 C123.37109375 347.23828125 123.37109375 347.23828125 121.265625 346.44140625 C116.65856524 346.11810381 113.42111105 348.37092969 109.49609375 350.61328125 C108.68543457 351.07226807 107.87477539 351.53125488 107.03955078 352.00415039 C100.97189837 355.58420094 97.03909934 359.1910288 93.37109375 365.23828125 C91.97181617 367.27119396 90.55458064 369.29184443 89.12109375 371.30078125 C88.4765625 372.24050781 87.83203125 373.18023437 87.16796875 374.1484375 C86.27851562 375.18291016 86.27851562 375.18291016 85.37109375 376.23828125 C84.38109375 376.23828125 83.39109375 376.23828125 82.37109375 376.23828125 C80.06109375 371.94828125 77.75109375 367.65828125 75.37109375 363.23828125 C55.78127728 370.54791426 47.55210715 378.13257716 38.37109375 396.23828125 C33.6980448 395.40469691 31.72364173 392.54036415 28.87109375 388.98828125 C28.39800781 388.41464844 27.92492187 387.84101563 27.4375 387.25 C24.71539322 383.93973718 22.04220312 380.58976754 19.37109375 377.23828125 C16.23396035 378.61505813 14.30482693 380.16333632 11.99609375 382.67578125 C4.50845544 390.37374648 -4.41078855 396.71601383 -13.078125 403.01953125 C-14.72863068 404.31665411 -16.17451142 405.72676517 -17.62890625 407.23828125 C-22.72897342 399.17504656 -27.51094948 390.99481771 -32.03857422 382.59619141 C-34.60953184 377.87944473 -37.42479773 373.55216093 -40.62890625 369.23828125 C-44.70266656 370.84838652 -47.39397694 373.77650396 -50.37890625 376.86328125 C-50.88550781 377.37890625 -51.39210938 377.89453125 -51.9140625 378.42578125 C-53.15694527 379.69211464 -54.39355901 380.96459565 -55.62890625 382.23828125 C-59.38348352 380.75621127 -60.89577499 378.7988004 -63.12890625 375.48828125 C-69.56743641 366.35902207 -76.65145486 357.33251793 -85.3046875 350.203125 C-90.71588165 345.6286197 -95.80272438 340.67416861 -100.95068359 335.80810547 C-102.28868359 334.55652851 -103.65199244 333.33202383 -105.0234375 332.1171875 C-110.14310695 327.43545311 -113.52344526 321.93651011 -116.9543457 315.95947266 C-119.9228624 310.90263542 -123.14616029 306.67235312 -128.75390625 304.36328125 C-130.62683361 304.13626307 -130.62683361 304.13626307 -132.37109375 304.7109375 C-143.17946003 307.23538291 -153.57452627 304.4816991 -163.12890625 299.36328125 C-170.36730796 293.2106398 -172.51548812 284.84660746 -173.50390625 275.73828125 C-173.88126777 269.16140902 -173.25280101 263.46769018 -169.00390625 258.23828125 C-165.33395342 256.69303795 -161.57702074 256.48292937 -157.62890625 256.23828125 C-158.52729254 253.54312238 -159.52845707 251.6843493 -160.9921875 249.28515625 C-164.01025083 243.91536936 -165.43183118 238.45740122 -166.81640625 232.48828125 C-167.19865356 230.8954834 -167.19865356 230.8954834 -167.58862305 229.27050781 C-177.14213643 188.72163397 -175.51562269 140.36756893 -157.62890625 102.23828125 C-157.22478516 101.3551123 -156.82066406 100.47194336 -156.40429688 99.56201172 C-137.56905454 58.47373236 -106.63886798 29.95382206 -64.17285156 13.93457031 C-48.95378262 8.4384628 -33.67581272 3.63668008 -17.62890625 1.23828125 C-16.61054688 1.06538574 -15.5921875 0.89249023 -14.54296875 0.71435547 C-9.68053155 0.12292879 -4.89406315 0.03739857 0 0 Z M-122.72412109 70.14404297 C-154.71628262 105.31819851 -160.36119242 160.57623927 -158.80175781 206.04882812 C-157.827831 224.01970365 -154.01067808 242.13158062 -142.1171875 256.0625 C-140.46287727 258.48100603 -140.00741613 260.35655938 -139.62890625 263.23828125 C-145.00070801 265.8670353 -149.67383226 266.84667775 -155.62890625 267.23828125 C-155.62890625 268.22828125 -155.62890625 269.21828125 -155.62890625 270.23828125 C-151.51354492 274.35364258 -148.27652006 275.99580621 -142.62890625 277.23828125 C-143.03488486 282.92198176 -145.01225991 285.1198036 -148.62890625 289.23828125 C-147.75322998 289.30559448 -147.75322998 289.30559448 -146.85986328 289.37426758 C-144.15685483 289.5885337 -141.45551673 289.81957874 -138.75390625 290.05078125 C-137.3771875 290.15616211 -137.3771875 290.15616211 -135.97265625 290.26367188 C-120.38074868 291.63619895 -120.38074868 291.63619895 -115.33203125 296.41015625 C-114.61273438 297.68632813 -114.61273438 297.68632813 -113.87890625 298.98828125 C-113.32332031 299.96023438 -112.76773438 300.9321875 -112.1953125 301.93359375 C-110.79684788 304.88397048 -109.62811623 307.84547296 -108.52099609 310.91503906 C-105.52699937 319.19365786 -101.6485419 323.8780307 -94.62890625 329.23828125 C-93.26691243 330.45876922 -91.91219166 331.68744378 -90.56640625 332.92578125 C-87.18020651 335.88699236 -83.60040634 338.37336255 -79.8046875 340.78125 C-79.08667969 341.26207031 -78.36867188 341.74289062 -77.62890625 342.23828125 C-76.85160156 342.75132812 -76.07429688 343.264375 -75.2734375 343.79296875 C-71.375978 347.39682347 -68.81729811 351.70197432 -66.00390625 356.17578125 C-65.4315625 357.06974609 -64.85921875 357.96371094 -64.26953125 358.88476562 C-61.66237184 362.96830484 -59.11057912 367.07712498 -56.62890625 371.23828125 C-51.748407 367.29633955 -47.57084795 363.1187805 -43.62890625 358.23828125 C-36.3279227 360.60036416 -32.26011056 365.13204848 -28.62890625 371.67578125 C-28.2927832 372.27688721 -27.95666016 372.87799316 -27.61035156 373.49731445 C-24.63388761 378.94356509 -22.27895279 384.58830743 -20.05078125 390.375 C-18.58213046 393.33247535 -17.41937755 394.55088087 -14.62890625 396.23828125 C-13.78328125 395.38105469 -12.93765625 394.52382813 -12.06640625 393.640625 C-6.10067901 387.61674712 -0.1569607 381.65878155 6.37109375 376.23828125 C7.17160156 375.53703125 7.97210938 374.83578125 8.796875 374.11328125 C13.91106852 369.76738084 17.692609 367.2276864 24.37109375 366.23828125 C24.57734375 366.89828125 24.78359375 367.55828125 24.99609375 368.23828125 C27.63094648 373.98705084 31.73498512 378.95879636 36.37109375 383.23828125 C38.31069142 380.46325571 38.31069142 380.46325571 39.37890625 378.22265625 C44.69751614 367.58543647 52.33312997 363.04784397 63.37109375 359.23828125 C69.74784193 357.12401987 75.63014029 355.50290451 82.37109375 356.23828125 C83.36109375 357.72328125 83.36109375 357.72328125 84.37109375 359.23828125 C92.14292855 353.27041979 99.63562268 347.1941483 106.83203125 340.5390625 C116.61024967 331.67849227 116.61024967 331.67849227 122.37109375 330.23828125 C120.88609375 335.18828125 120.88609375 335.18828125 119.37109375 340.23828125 C120.71171875 339.39265625 122.05234375 338.54703125 123.43359375 337.67578125 C124.18769531 337.20011719 124.94179688 336.72445313 125.71875 336.234375 C132.46898697 331.15429976 137.45191273 324.7928983 142.37109375 317.98828125 C143.28737549 316.73301636 143.28737549 316.73301636 144.22216797 315.45239258 C148.52267446 309.51953095 152.54994345 303.49107265 156.37109375 297.23828125 C157.68575608 295.22483443 159.02481563 293.23077287 160.37109375 291.23828125 C164.33109375 291.56828125 168.29109375 291.89828125 172.37109375 292.23828125 C172.37109375 287.61828125 172.37109375 282.99828125 172.37109375 278.23828125 C174.35109375 277.57828125 176.33109375 276.91828125 178.37109375 276.23828125 C180.34098929 275.38963173 182.29998241 274.51513772 184.24609375 273.61328125 C185.21289062 273.16726563 186.1796875 272.72125 187.17578125 272.26171875 C187.90023438 271.92398437 188.6246875 271.58625 189.37109375 271.23828125 C189.37109375 270.90828125 189.37109375 270.57828125 189.37109375 270.23828125 C185.41109375 269.57828125 181.45109375 268.91828125 177.37109375 268.23828125 C177.02085753 263.51009228 177.19865691 260.17973115 179.11328125 255.82421875 C181.77222391 249.42746155 183.76496426 242.87150434 185.74609375 236.23828125 C186.03773407 235.26317596 186.03773407 235.26317596 186.33526611 234.26837158 C190.27020863 221.05518951 193.62921657 207.75345084 196.37109375 194.23828125 C196.54898437 193.38186035 196.726875 192.52543945 196.91015625 191.64306641 C201.24285663 170.09561898 201.30359697 147.43723517 195.37109375 126.23828125 C195.09394531 125.10132812 194.81679688 123.964375 194.53125 122.79296875 C185.74310753 89.82730989 158.94331342 61.61106783 130.21875 44.7734375 C125.65691493 42.15801234 121.03024355 39.67536002 116.37109375 37.23828125 C115.63681152 36.85140137 114.9025293 36.46452148 114.14599609 36.06591797 C94.56217078 25.88510973 73.15938674 18.78009444 51.37109375 15.23828125 C50.36731689 15.07489258 50.36731689 15.07489258 49.34326172 14.90820312 C-11.65993563 5.32134038 -79.94661695 24.51938364 -122.72412109 70.14404297 Z " fill="#FFFFFF" transform="translate(357.62890625,-0.23828125)"/>
<path d="M0 0 C5.37689889 5.03369258 9.19538162 11.21234748 13.0078125 17.4609375 C15.21129861 20.26930215 16.54983824 21.18722151 20 22 C25.79850732 19.60496437 28.04750463 15.04517999 31.20703125 9.828125 C35.53759213 2.99734923 40.19861554 -2.54702812 48.13671875 -4.94921875 C63.25503 -8.09263 79.77672502 -9.34405309 94 -2.1875 C101.64079904 3.38391596 103.24467565 12.21437659 105 21 C106.40372609 32.84683119 103.2668679 44.53997827 96 54 C87.62405146 63.02287139 79.55235753 64.45735374 67.73828125 65.08398438 C61.7477113 65.51188223 57.93699119 66.51544817 53 70 C49.28877883 74.94829489 48.87385506 79.17169192 49.0078125 85.234375 C49.02457031 86.44867188 49.04132813 87.66296875 49.05859375 88.9140625 C49.10259673 91.4558819 49.15458171 93.9975766 49.21484375 96.5390625 C49.29497015 103.42993293 49.13965672 108.80233248 46 115 C40.97688408 119.77808588 37.51503607 120.33714029 30.765625 120.29296875 C26.996107 119.8936554 24.8550517 118.42679395 22 116 C20.515 115.01 20.515 115.01 19 114 C18.236875 114.804375 17.47375 115.60875 16.6875 116.4375 C12.53448852 120.39734815 8.97645261 120.29059611 3.50390625 120.2109375 C0.01292492 119.91684547 -2.15139526 119.03471767 -5 117 C-9.2765405 111.56763774 -10.14865817 107.79077363 -9.9921875 101.01953125 C-9.97542969 99.85486328 -9.95867187 98.69019531 -9.94140625 97.49023438 C-9.89748517 95.05778163 -9.84553218 92.62545933 -9.78515625 90.19335938 C-9.68959424 82.30080601 -9.80659303 74.89196475 -15 68.5625 C-21.42661624 65.21530404 -28.56066607 64.99748261 -35.6875 64.625 C-44.69421781 63.97557945 -49.99958727 60.79328906 -56.17578125 54.27734375 C-64.44725706 43.95128294 -66.0054069 31.82598518 -65 19 C-63.76259521 10.91622417 -61.68991786 4.68991786 -55.8125 -1.1875 C-41.46422947 -10.43416323 -13.70982671 -10.38331897 0 0 Z M-42 29 C-42 35.08648987 -38.68597665 38.41885601 -34.6875 42.6875 C-30.31173517 46.89568235 -26.25840193 48.74083912 -20.1875 49.4375 C-13.96201916 49.2064763 -8.10703822 46.40469214 -3 43 C-4.52579984 39.75201023 -6.35064352 36.83639485 -8.375 33.875 C-9.25285156 32.57175781 -9.25285156 32.57175781 -10.1484375 31.2421875 C-12.11773453 28.85742696 -13.07480157 27.92428145 -16 27 C-18.58830915 26.80573397 -21.04064067 26.71618595 -23.625 26.75 C-24.33269531 26.75386719 -25.04039062 26.75773437 -25.76953125 26.76171875 C-31.33884366 26.85301895 -36.61039897 27.54895357 -42 29 Z M47.13671875 33.25390625 C46.41935547 34.39666016 46.41935547 34.39666016 45.6875 35.5625 C45.19636719 36.32691406 44.70523438 37.09132813 44.19921875 37.87890625 C42.86902904 40.07353044 42.86902904 40.07353044 42 43 C43.6029053 43.81498562 45.20737278 44.62689927 46.8125 45.4375 C47.70582031 45.88996094 48.59914063 46.34242188 49.51953125 46.80859375 C54.92978277 49.4072185 59.84364492 50.08454111 65.53515625 48.12890625 C71.40008727 45.43086106 75.31791796 42.28088083 79 37 C79.639375 36.0925 80.27875 35.185 80.9375 34.25 C82.35619457 31.91684656 82.35619457 31.91684656 81 29 C75.17375494 27.02323828 69.41643297 26.74778781 63.3125 26.625 C62.58804688 26.59897705 61.86359375 26.5729541 61.1171875 26.54614258 C54.95742749 26.52565714 51.15205281 28.39678308 47.13671875 33.25390625 Z " fill="#FFFFFF" transform="translate(357,212)"/>
<path d="M0 0 C1.53827957 -0.01441132 1.53827957 -0.01441132 3.1076355 -0.02911377 C4.22727692 -0.03336365 5.34691833 -0.03761353 6.50048828 -0.04199219 C7.64937531 -0.04769226 8.79826233 -0.05339233 9.98196411 -0.05926514 C12.42497837 -0.06873843 14.86800555 -0.07525831 17.31103516 -0.07910156 C21.02025381 -0.0887359 24.72890154 -0.11970787 28.43798828 -0.15136719 C30.812985 -0.15790419 33.18798568 -0.16315191 35.56298828 -0.16699219 C36.66238739 -0.17933899 37.7617865 -0.19168579 38.89450073 -0.20440674 C49.10323738 -0.17542261 60.3031968 1.32308998 67.88330078 8.83300781 C73.81370148 15.5047086 74.74499347 20.51016042 74.50830078 29.45019531 C73.95876348 35.97595081 71.87570424 39.93216349 66.94580078 44.16113281 C66.03830078 44.82113281 65.13080078 45.48113281 64.19580078 46.16113281 C64.89705078 46.67675781 65.59830078 47.19238281 66.32080078 47.72363281 C72.59041314 53.03917372 76.69594523 57.87045388 77.49658203 66.34472656 C77.52988515 75.59189166 76.37340998 81.51142483 70.07470703 88.52050781 C63.80336393 93.99652466 56.39672489 96.29180702 48.23388672 96.2746582 C47.03294373 96.27458267 45.83200073 96.27450714 44.59466553 96.27442932 C42.6569931 96.26668739 42.6569931 96.26668739 40.68017578 96.25878906 C39.34067843 96.25692298 38.0011804 96.25549997 36.66168213 96.25450134 C33.14357606 96.25069116 29.62551157 96.24087372 26.10742188 96.22979736 C22.5144914 96.21955098 18.92155417 96.21499681 15.32861328 96.20996094 C8.28432549 96.19925006 1.24006585 96.18219169 -5.80419922 96.16113281 C-5.82732076 83.79194567 -5.84511334 71.42276362 -5.85601139 59.0535593 C-5.86124063 53.31068219 -5.86833902 47.56781981 -5.87963867 41.82495117 C-5.89046609 36.28773287 -5.89647574 30.75052877 -5.89907646 25.2133007 C-5.90093097 23.09569004 -5.90455208 20.97808019 -5.90992928 18.86047554 C-5.91713778 15.90542007 -5.91819024 12.95042411 -5.91772461 9.99536133 C-5.92131989 9.11063644 -5.92491516 8.22591156 -5.92861938 7.31437683 C-5.91613869 0.04457964 -5.91613869 0.04457964 0 0 Z M21.19580078 21.16113281 C21.19580078 26.44113281 21.19580078 31.72113281 21.19580078 37.16113281 C24.7587589 37.24217735 28.31986786 37.30165724 31.88330078 37.34863281 C32.89070313 37.37376953 33.89810547 37.39890625 34.93603516 37.42480469 C42.09533232 37.59932784 42.09533232 37.59932784 48.19580078 34.16113281 C49.61621899 31.3202964 49.5103235 29.30636004 49.19580078 26.16113281 C47.38807143 23.68387407 46.12116628 22.43518336 43.16455078 21.55957031 C38.89868669 20.98704645 34.68158299 21.05696416 30.38330078 21.09863281 C29.05782227 21.10540039 29.05782227 21.10540039 27.70556641 21.11230469 C25.53561519 21.12403415 23.36569906 21.14196786 21.19580078 21.16113281 Z M21.19580078 58.16113281 C21.19580078 64.10113281 21.19580078 70.04113281 21.19580078 76.16113281 C24.90457662 76.24228107 28.61156589 76.30170876 32.32080078 76.34863281 C33.89087891 76.38633789 33.89087891 76.38633789 35.49267578 76.42480469 C41.10747903 76.47810978 45.42929545 76.51331443 50.19580078 73.16113281 C52.53748842 69.64860135 52.69203755 68.29643926 52.19580078 64.16113281 C50.04489627 60.82352236 48.99167279 59.42642348 45.19580078 58.16113281 C43.34969546 58.07874113 41.50074915 58.05369922 39.65283203 58.06347656 C38.04311523 58.06831055 38.04311523 58.06831055 36.40087891 58.07324219 C35.28132813 58.08162109 34.16177734 58.09 33.00830078 58.09863281 C31.31157227 58.10540039 31.31157227 58.10540039 29.58056641 58.11230469 C26.78562202 58.1240977 23.99070479 58.14203324 21.19580078 58.16113281 Z " fill="#FFFFFF" transform="translate(378.80419921875,519.8388671875)"/>
<path d="M0 0 C9.48282281 9.26730411 13.78996944 21.55374118 13.99169922 34.62915039 C14.04156712 50.37420786 11.64393666 63.65069491 0.5 75.5625 C-9.72204202 85.08719805 -23.39605283 88.40936382 -37.18359375 87.96875 C-51.08802693 86.69343893 -62.5536286 82.54235795 -72.2421875 72.24609375 C-82.87770384 58.6930525 -83.44044212 43.17214721 -82.25 26.6875 C-80.48706361 14.04464685 -73.28010769 4.51392945 -63.625 -3.375 C-44.44352975 -17.47047435 -18.03117039 -12.82987124 0 0 Z M-49.625 15.75 C-56.31397044 24.72436868 -56.17390375 35.96753854 -55.25 46.6875 C-54.19351626 53.19838819 -52.21544223 58.15383536 -47.25 62.6875 C-40.96496637 66.53302727 -35.45316601 67.78911549 -28.18359375 66.25 C-22.64428092 64.56823519 -19.33766378 61.53127256 -16.25 56.6875 C-10.64478772 45.34570328 -11.32519676 33.44513707 -15.25 21.6875 C-18.26428253 16.06083927 -21.65156955 12.6323838 -27.6875 10.4375 C-35.65326056 8.76049778 -43.77431882 9.57913229 -49.625 15.75 Z " fill="#FFFFFF" transform="translate(277.25,530.3125)"/>
<path d="M0 0 C9.17197813 8.3508382 14.74708765 20.12890801 15.82641602 32.47119141 C15.92710854 34.81210711 15.95435934 37.13750231 15.9375 39.48046875 C15.93186035 40.30933594 15.9262207 41.13820313 15.92041016 41.9921875 C15.66456943 55.0020686 11.94328324 66.59889533 3.125 76.41796875 C-7.41892778 86.215959 -21.11454476 89.7102577 -35.19921875 89.41796875 C-47.81694221 88.42469163 -60.65902125 84.85010552 -69.375 75.16796875 C-80.72682875 60.56932458 -81.87236642 45.05772953 -80.375 27.16796875 C-78.48644362 16.2165767 -72.27519897 5.65686231 -63.60546875 -1.3359375 C-45.17244594 -13.69994404 -17.77387757 -13.71044175 0 0 Z M-47.6875 17.35546875 C-54.05811175 25.69958523 -55.02677527 35.754025 -54.125 46.01171875 C-52.60390434 54.81234365 -49.69215827 60.79414632 -42.375 66.0390625 C-38.05531347 68.47732306 -33.24462171 68.8921689 -28.375 68.16796875 C-22.62421229 66.21602711 -17.57598922 63.5862012 -14.3359375 58.3125 C-9.14044336 46.71767771 -9.07824555 35.01220574 -13.375 23.16796875 C-16.77516228 16.90926296 -20.59508604 13.86406725 -27.3125 11.48046875 C-35.19318786 10.28642514 -42.16201744 11.36497033 -47.6875 17.35546875 Z " fill="#FFFFFF" transform="translate(172.375,528.83203125)"/>
<path d="M0 0 C1.50390625 1.24609375 1.50390625 1.24609375 2.50390625 4.24609375 C1.97485352 6.1472168 1.97485352 6.1472168 1.0703125 8.2578125 C0.75126953 9.01513672 0.43222656 9.77246094 0.10351562 10.55273438 C-0.23873047 11.33841797 -0.58097656 12.12410156 -0.93359375 12.93359375 C-1.27197266 13.73087891 -1.61035156 14.52816406 -1.95898438 15.34960938 C-2.79616385 17.31874982 -3.64502905 19.28291459 -4.49609375 21.24609375 C-8.36106915 20.71222664 -11.55221189 19.9522402 -15.05859375 18.24609375 C-23.33024772 14.23559486 -34.28108973 13.52343023 -43.05859375 16.37109375 C-48.97753548 19.59960742 -51.61311988 23.73420099 -53.87426758 29.99633789 C-54.94241854 33.86088878 -54.98464206 37.63249243 -54.93359375 41.62109375 C-54.92529541 42.45600342 -54.91699707 43.29091309 -54.90844727 44.15112305 C-54.68350163 52.36524107 -53.32549884 58.92235041 -47.18359375 64.74609375 C-41.525768 69.45866532 -34.55031494 69.52686474 -27.55859375 69.37109375 C-26.77935547 69.36207031 -26.00011719 69.35304688 -25.19726562 69.34375 C-23.29673928 69.32043066 -21.39637367 69.28456961 -19.49609375 69.24609375 C-19.49609375 63.96609375 -19.49609375 58.68609375 -19.49609375 53.24609375 C-24.77609375 53.24609375 -30.05609375 53.24609375 -35.49609375 53.24609375 C-35.49609375 46.97609375 -35.49609375 40.70609375 -35.49609375 34.24609375 C-21.96609375 34.24609375 -8.43609375 34.24609375 5.50390625 34.24609375 C5.50390625 50.74609375 5.50390625 67.24609375 5.50390625 84.24609375 C-14.55036788 90.93085179 -36.19412933 95.3031847 -56.5703125 86.9921875 C-68.21811817 81.0302005 -76.19462055 72.89139785 -80.80859375 60.68359375 C-84.65194725 47.23970008 -84.68155444 29.96369287 -78.49609375 17.24609375 C-71.57309604 4.88985732 -61.48146057 -2.56177384 -47.99609375 -6.56640625 C-31.99974346 -10.13482285 -14.27876421 -8.26380092 0 0 Z " fill="#FFFFFF" transform="translate(639.49609375,526.75390625)"/>
<path d="M0 0 C2.33089537 2.25805489 3.87251364 3.96065648 4.30078125 7.2421875 C4.31874714 11.18270597 4.21968298 14.3272695 2.875 18.0625 C1 19.9375 1 19.9375 -2.125 20.3125 C-5 19.9375 -5 19.9375 -6 18.9375 C-6.28627309 15.9339046 -6.44865755 12.93009893 -6.62109375 9.91796875 C-6.98869751 7.02640512 -7.34039205 5.31218018 -9 2.9375 C-13.3307441 0.04419437 -17.99084023 0.36173451 -23 0.9375 C-33.33115821 3.67587929 -41.51899429 9.78632233 -47 18.9375 C-49.28516254 23.39736405 -50.94171361 27.33462424 -51.125 32.375 C-49.52220183 36.02581806 -47.65584747 36.42828063 -44 37.9375 C-41.12688925 38.62509121 -38.23811481 39.03901836 -35.3125 39.4375 C-34.48669434 39.5607666 -33.66088867 39.6840332 -32.81005859 39.81103516 C-29.36683977 40.32396592 -25.92085633 40.81268032 -22.47119141 41.28027344 C-7.07873626 43.36892517 8.69177045 46.06777458 18.83984375 59.10546875 C26.52768448 71.24552702 28.00206052 85.16359451 24.875 99.125 C20.17001707 115.40642929 10.95593313 125.88656508 -3.4375 134.375 C-17.01774709 141.68744074 -30.80966169 142.48817116 -45.66015625 138.9765625 C-53.91702522 136.40775882 -59.6906859 132.44404713 -64 124.9375 C-67.1843411 114.80924089 -64.12143952 104.17706877 -59.8125 94.875 C-54.02506011 84.03857695 -45.05948462 73.75942897 -33 69.9375 C-27.49322664 69.30010766 -22.60017385 69.22313667 -17.5 71.5 C-11.90234238 76.95771618 -9.88061 82.8584272 -9.6875 90.5625 C-9.79961583 99.77842106 -12.84294647 106.50170013 -19.12890625 113.1796875 C-23.67028343 117.446117 -27.94510801 120.64930264 -34.3125 121.25 C-38.85288651 120.86522148 -40.6650348 120.04508121 -44 116.9375 C-47.16608266 111.18098608 -47.76603526 105.24307554 -46 98.9375 C-43.94954519 95.17833284 -42.56102976 93.31151984 -39 90.9375 C-32.0031348 90.16007053 -32.0031348 90.16007053 -28.5 92.875 C-26.53173031 96.89355061 -26.25445853 100.5249348 -27 104.9375 C-27.66 105.5975 -28.32 106.2575 -29 106.9375 C-30.32 106.9375 -31.64 106.9375 -33 106.9375 C-33.33 104.9575 -33.66 102.9775 -34 100.9375 C-35.485 101.4325 -35.485 101.4325 -37 101.9375 C-38.22520264 104.94597418 -38.22520264 104.94597418 -39 107.9375 C-38.01 108.9275 -37.02 109.9175 -36 110.9375 C-30.75361274 109.7832948 -26.42364668 108.315439 -23 103.9375 C-19.5383676 97.37916633 -17.94664087 91.17522686 -20 83.9375 C-21.68488674 80.33796924 -22.66278378 79.16231082 -26 76.9375 C-30.33926756 76.27196817 -33.83805993 77.20949434 -37.53125 79.5234375 C-46.12309111 86.65678706 -53.85350579 98.00377891 -55.30078125 109.28125 C-55.32777298 114.24772851 -54.8605416 117.69600728 -52 121.9375 C-46.39462061 127.12247594 -41.78796346 127.23440487 -34.41015625 127.14453125 C-23.95131676 126.50957307 -14.62999631 121.90487589 -7.48046875 114.234375 C1.91603822 102.32901625 6.22552728 90.05809005 5 74.9375 C3.17928198 66.82229969 -0.17819249 60.06583532 -7.2578125 55.47265625 C-15.16053817 51.19923876 -22.69900993 49.99047046 -31.5637207 49.65429688 C-50.16964287 48.93478369 -50.16964287 48.93478369 -57.125 42.3125 C-60.92610248 37.49777019 -60.54152182 32.89423999 -60 26.9375 C-57.02592588 14.86204245 -47.80877927 4.98876492 -37.56640625 -1.63671875 C-25.40495583 -8.60608853 -11.59176446 -7.96933806 0 0 Z " fill="#FFFFFF" transform="translate(561,385.0625)"/>
<path d="M0 0 C4.29 0 8.58 0 13 0 C22.02784391 19.10543711 30.73040605 38.38889563 38.93310547 57.86376953 C41.80121301 64.64753019 44.88894256 71.32463567 48 78 C49.91773414 73.58379626 51.83419166 69.16703946 53.75 64.75 C54.04144897 64.07817688 54.33289795 63.40635376 54.63317871 62.71417236 C58.86923821 52.94726764 63.07081363 43.16639231 67.25 33.375 C72.02898203 22.18626341 76.95011993 11.06892905 82 0 C86.29 0 90.58 0 95 0 C95 33 95 66 95 100 C90.38 100 85.76 100 81 100 C80.67 80.2 80.34 60.4 80 40 C71.16620839 59.9368141 62.41419759 79.88289558 54 100 C49.71 100 45.42 100 41 100 C40.29617187 98.35 39.59234375 96.7 38.8671875 95 C31.01484366 76.62045632 23.02794677 58.30371864 15 40 C14.67 59.8 14.34 79.6 14 100 C9.38 100 4.76 100 0 100 C0 67 0 34 0 0 Z " fill="#FFFFFF" transform="translate(11,406)"/>
<path d="M0 0 C4.29 0 8.58 0 13 0 C20.55380908 16.05008596 27.75135607 32.21400817 34.65844727 48.55200195 C38.57577305 57.79888252 42.68918208 66.92974935 47 76 C58.14153132 50.72624494 69.17176031 25.40963032 80 0 C84.62 0 89.24 0 94 0 C94 32.34 94 64.68 94 98 C89.05 98 84.1 98 79 98 C78.505 69.29 78.505 69.29 78 40 C69.61877696 59.3132531 61.27712771 78.64196078 53 98 C49.04 98 45.08 98 41 98 C36.50816801 89.21897506 32.43879048 80.31441333 28.5625 71.25 C28.02312131 69.99464774 27.48340835 68.73943905 26.94335938 67.484375 C26.40646484 66.2365625 25.86957031 64.98875 25.31640625 63.703125 C21.90894971 55.78851452 18.45383566 47.89448152 15 40 C14.67 59.14 14.34 78.28 14 98 C9.38 98 4.76 98 0 98 C0 65.66 0 33.32 0 0 Z " fill="#FFFFFF" transform="translate(307,408)"/>
<path d="M0 0 C3.15161612 0.72369226 5.42540862 1.74200857 8.1875 3.4375 C13.16130684 6.26223155 18.47226319 8.34975852 24.28515625 7.7734375 C27.04085888 7.59382052 28.52121749 7.74492025 31 9 C33.90206063 13.04416191 35.7164405 17.51212118 37.68896484 22.06542969 C39.22371233 25.50074901 40.86173654 28.8808064 42.51953125 32.2578125 C42.83581985 32.90264587 43.15210846 33.54747925 43.47798157 34.21185303 C44.13262973 35.54637581 44.78733946 36.88086839 45.44210815 38.21533203 C51.21594404 50.01755744 56.76323031 61.90726922 62.07421875 73.92529297 C63.99497239 78.2297667 66.00293753 82.49407001 68.00390625 86.76171875 C69 89 69 89 69 90 C60.09 90 51.18 90 42 90 C37 80 37 80 34 71 C20.8 71.33 7.6 71.66 -6 72 C-8.31 77.61 -10.62 83.22 -13 89 C-14 90 -14 90 -16.59204102 90.11352539 C-17.71795654 90.10828857 -18.84387207 90.10305176 -20.00390625 90.09765625 C-21.82631836 90.09282227 -21.82631836 90.09282227 -23.68554688 90.08789062 C-24.96494141 90.07951172 -26.24433594 90.07113281 -27.5625 90.0625 C-28.84576172 90.05798828 -30.12902344 90.05347656 -31.45117188 90.04882812 C-34.63416022 90.03699545 -37.81705762 90.02051068 -41 90 C-40.41380456 86.50782913 -39.51224366 83.6393414 -37.953125 80.46484375 C-37.52749268 79.58852295 -37.10186035 78.71220215 -36.66333008 77.80932617 C-36.19693115 76.86162354 -35.73053223 75.9139209 -35.25 74.9375 C-34.23680703 72.84967311 -33.22515269 70.76109901 -32.21484375 68.671875 C-31.41989502 67.02928711 -31.41989502 67.02928711 -30.60888672 65.35351562 C-27.95572651 59.8233474 -25.38477092 54.25563966 -22.8125 48.6875 C-17.64690995 37.52137314 -12.43018031 26.38012604 -7.1875 15.25 C-6.82685455 14.48432709 -6.46620911 13.71865417 -6.09463501 12.92977905 C-4.06408918 8.61938126 -2.03249805 4.30947758 0 0 Z M13 26 C11.33039819 29.81122135 9.66481068 33.62418364 8 37.4375 C7.52304687 38.52611328 7.04609375 39.61472656 6.5546875 40.73632812 C6.10351562 41.77080078 5.65234375 42.80527344 5.1875 43.87109375 C4.76855469 44.82943115 4.34960938 45.78776855 3.91796875 46.77514648 C2.93643202 48.75293609 2.93643202 48.75293609 3 50 C10.26 50 17.52 50 25 50 C21.93423698 41.85382969 18.70835723 33.87434152 15 26 C14.34 26 13.68 26 13 26 Z " fill="#FFFFFF" transform="translate(493,526)"/>
<path d="M0 0 C7.26 0 14.52 0 22 0 C22 19.8 22 39.6 22 60 C25.63 60 29.26 60 33 60 C33 66.93 33 73.86 33 81 C29.37 81 25.74 81 22 81 C22 85.95 22 90.9 22 96 C13.09 96 4.18 96 -5 96 C-5 91.05 -5 86.1 -5 81 C-17.21 81 -29.42 81 -42 81 C-43.11842865 65.54534954 -42.49827523 57.80936299 -32.63818359 46.00097656 C-29.79234982 42.524903 -27.23230678 38.84365969 -24.625 35.1875 C-23.53408386 33.68472906 -22.44293558 32.18212662 -21.3515625 30.6796875 C-16.27530395 23.63746183 -11.41485761 16.44547068 -6.5546875 9.25317383 C-4.40801942 6.14205578 -2.19699114 3.07578759 0 0 Z M-6 44 C-7.3285941 45.70095792 -8.6124117 47.43698838 -9.875 49.1875 C-10.57367187 50.15042969 -11.27234375 51.11335937 -11.9921875 52.10546875 C-13.76835055 54.66604622 -15.39667799 57.32779665 -17 60 C-13.04 60 -9.08 60 -5 60 C-5 54.72 -5 49.44 -5 44 C-5.33 44 -5.66 44 -6 44 Z " fill="#FF0044" transform="translate(711,520)"/>
<path d="M0 0 C12.313125 -0.0928125 12.313125 -0.0928125 24.875 -0.1875 C28.73227783 -0.22846802 28.73227783 -0.22846802 32.66748047 -0.27026367 C34.73404472 -0.2790357 36.80061421 -0.28667794 38.8671875 -0.29296875 C39.91720947 -0.30831665 40.96723145 -0.32366455 42.04907227 -0.33947754 C52.39745161 -0.34310516 60.55882671 1.41232743 68.08203125 8.7890625 C74.09644994 15.72218058 74.86035939 23.17818554 74.4453125 32.11328125 C73.60055765 39.48636084 70.87833431 44.63280598 65.3125 49.5 C64.21259583 50.3389513 63.10901379 51.17312826 62 52 C61.34 52.66 60.68 53.32 60 54 C60.39333527 54.41231873 60.78667053 54.82463745 61.19192505 55.24945068 C65.1197938 59.56143421 67.44925214 63.55893957 69.4296875 69.015625 C69.7097464 69.75327087 69.9898053 70.49091675 70.27835083 71.25091553 C70.86136429 72.79458941 71.4374679 74.34088965 72.00683594 75.88964844 C72.87985462 78.26319866 73.77392266 80.62797093 74.671875 82.9921875 C75.23820704 84.49953924 75.80335438 86.00733674 76.3671875 87.515625 C76.6327243 88.22189026 76.89826111 88.92815552 77.17184448 89.65582275 C78.24264586 92.58008056 79 94.8592097 79 98 C73.39 98 67.78 98 62 98 C61.11957031 95.60363281 60.23914063 93.20726562 59.33203125 90.73828125 C58.46479542 88.40703848 57.59286031 86.07760491 56.72045898 83.74829102 C56.11917205 82.13521231 55.52274586 80.52031267 54.93139648 78.90356445 C54.07783819 76.5726109 53.20669768 74.24888365 52.33203125 71.92578125 C52.07347855 71.20787918 51.81492584 70.48997711 51.54853821 69.75032043 C49.80621867 65.18939488 47.8786802 62.1544314 44 59 C40.89918293 57.74584541 37.6837987 57.80737548 34.359375 57.68359375 C33.39483398 57.64548584 32.43029297 57.60737793 31.43652344 57.56811523 C30.2199707 57.52501221 29.00341797 57.48190918 27.75 57.4375 C23.8725 57.293125 19.995 57.14875 16 57 C16 70.53 16 84.06 16 98 C10.72 98 5.44 98 0 98 C0 65.66 0 33.32 0 0 Z M16 13 C16 23.23 16 33.46 16 44 C22.1565625 44.061875 22.1565625 44.061875 28.4375 44.125 C30.35067017 44.15231201 30.35067017 44.15231201 32.30249023 44.18017578 C44.02341961 44.37929173 44.02341961 44.37929173 54.4375 39.6875 C57.94352262 36.01045189 58.809286 33.68464031 59.375 28.6875 C58.90990714 24.11408689 57.6270368 20.76626959 55 17 C49.94128456 13.07949553 45.30157906 12.87584077 39.046875 12.90234375 C37.23461426 12.90609009 37.23461426 12.90609009 35.38574219 12.90991211 C33.0910498 12.92356812 33.0910498 12.92356812 30.75 12.9375 C25.8825 12.958125 21.015 12.97875 16 13 Z " fill="#FFFFFF" transform="translate(218,408)"/>
<path d="M0 0 C1.26143011 1.06715922 2.49023292 2.17382258 3.6875 3.3125 C4.37585938 3.96089844 5.06421875 4.60929687 5.7734375 5.27734375 C16.42129001 16.22206947 19.06035998 30.39206251 18.99023438 45.18505859 C18.60820759 60.11593889 14.30308839 72.26447043 4.01171875 83.1171875 C-6.0485399 92.61948223 -17.94370609 94.28636355 -31.3125 94.3125 C-43.4727427 93.64578824 -54.0625746 88.83393173 -62.34375 79.84765625 C-72.34299127 66.97164914 -74.43934433 51.15092304 -73.3125 35.3125 C-71.78791264 23.26825983 -67.90824826 11.56047905 -58.79296875 3.1328125 C-42.53227359 -8.80023308 -17.2868435 -11.95756612 0 0 Z M-47.9375 13.609375 C-55.99065327 23.58430348 -57.74850286 35.72324372 -57.1171875 48.16015625 C-56.04719829 57.09942978 -53.98934854 66.82111948 -47.3125 73.3125 C-39.35338245 79.26877615 -31.21413616 81.42626429 -21.3125 80.3125 C-11.7409672 77.6786314 -6.48590535 73.32339322 -1.6015625 64.76953125 C3.82663944 54.42304937 4.12575927 41.14894144 1.49609375 29.88671875 C-1.44520744 20.52286618 -5.56027129 13.18457398 -14.3125 8.3125 C-25.26423026 3.93180789 -39.0813587 5.25642354 -47.9375 13.609375 Z " fill="#FFFFFF" transform="translate(482.3125,413.6875)"/>
<path d="M0 0 C27.39 0 54.78 0 83 0 C83 7.26 83 14.52 83 22 C82.505 22.495 82.505 22.495 82 23 C73.09 23 64.18 23 55 23 C55 47.09 55 71.18 55 96 C46.09 96 37.18 96 28 96 C28 71.91 28 47.82 28 23 C19.09 23 10.18 23 1 23 C0.67 22.67 0.34 22.34 0 22 C0 14.74 0 7.48 0 0 Z " fill="#FFFFFF" transform="translate(11,520)"/>
<path d="M0 0 C4.62 0 9.24 0 14 0 C24.80162274 20.96785591 34.05353881 42.6840034 43.37646484 64.33959961 C46.96244321 72.66109265 50.63251878 80.93988523 54.46191406 89.15258789 C57 94.67733204 57 94.67733204 57 98 C51.72 98 46.44 98 41 98 C37.42950361 90.37212134 34.13444383 82.83610957 31 75 C15.49 75 -0.02 75 -16 75 C-18.9196409 82.19406815 -18.9196409 82.19406815 -21.83374023 89.39038086 C-22.19669189 90.28120361 -22.55964355 91.17202637 -22.93359375 92.08984375 C-23.30540771 93.00628662 -23.67722168 93.92272949 -24.06030273 94.86694336 C-25 97 -25 97 -26 98 C-28.86267567 98.07325168 -31.700719 98.09238205 -34.5625 98.0625 C-35.36880859 98.05798828 -36.17511719 98.05347656 -37.00585938 98.04882812 C-39.00393756 98.03700518 -41.00197783 98.01906914 -43 98 C-41.39671932 92.77873824 -39.23726186 87.91807125 -36.96484375 82.96484375 C-36.56729385 82.09090469 -36.16974396 81.21696564 -35.76014709 80.31654358 C-34.48877443 77.52222331 -33.21353724 74.72969292 -31.9375 71.9375 C-26.56326166 60.17040427 -21.26425224 48.38340852 -16.19787598 36.4800415 C-12.8725615 28.67233921 -9.42752712 20.92268228 -5.9375 13.1875 C-5.35204441 11.88614378 -4.76675814 10.58471138 -4.18164062 9.28320312 C-2.78998178 6.18779269 -1.39496381 3.09393056 0 0 Z M7 20 C4.57428285 25.51554647 2.15332756 31.03314828 -0.26318359 36.55273438 C-1.08641168 38.43124141 -1.91095214 40.30917387 -2.73681641 42.18652344 C-3.92172905 44.88067054 -5.10195028 47.57682963 -6.28125 50.2734375 C-6.65310425 51.11619232 -7.0249585 51.95894714 -7.40808105 52.82723999 C-7.74843384 53.60789825 -8.08878662 54.38855652 -8.43945312 55.19287109 C-8.7414563 55.88126068 -9.04345947 56.56965027 -9.35461426 57.27890015 C-10.1170369 59.00575697 -10.1170369 59.00575697 -10 61 C1.55 61 13.1 61 25 61 C23.17049134 55.51147402 21.41973061 50.39750305 19.15234375 45.13671875 C18.8949794 44.53745071 18.63761505 43.93818268 18.37245178 43.320755 C17.8355417 42.07239348 17.2969153 40.82476876 16.7565918 39.57788086 C15.93220994 37.67529108 15.11313228 35.77048529 14.29492188 33.86523438 C11.30548684 26.85923465 11.30548684 26.85923465 8 20 C7.67 20 7.34 20 7 20 Z " fill="#FFFFFF" transform="translate(155,408)"/>
<path d="M0 0 C21.45 0 42.9 0 65 0 C65 4.29 65 8.58 65 13 C48.83 13 32.66 13 16 13 C16 22.57 16 32.14 16 42 C31.18 42 46.36 42 62 42 C62 46.29 62 50.58 62 55 C46.82 55 31.64 55 16 55 C16 64.9 16 74.8 16 85 C32.17 85 48.34 85 65 85 C65 89.29 65 93.58 65 98 C43.55 98 22.1 98 0 98 C0 65.66 0 33.32 0 0 Z " fill="#FFFFFF" transform="translate(592,408)"/>
<path d="M0 0 C8.91 0 17.82 0 27 0 C27 24.75 27 49.5 27 75 C40.2 75 53.4 75 67 75 C67 81.93 67 88.86 67 96 C44.89 96 22.78 96 0 96 C0 64.32 0 32.64 0 0 Z " fill="#FFFFFF" transform="translate(300,520)"/>
<path d="M0 0 C26.73 0 53.46 0 81 0 C81 4.29 81 8.58 81 13 C70.11 13 59.22 13 48 13 C48 41.05 48 69.1 48 98 C42.72 98 37.44 98 32 98 C32 69.95 32 41.9 32 13 C21.44 13 10.88 13 0 13 C0 8.71 0 4.42 0 0 Z " fill="#FFFFFF" transform="translate(661,408)"/>
</svg>
