<?xml version="1.0" encoding="UTF-8"?>
<svg version="1.1" xmlns="http://www.w3.org/2000/svg" width="320" height="320">
<path d="M0 0 C1.01707031 -0.0299707 1.01707031 -0.0299707 2.0546875 -0.06054688 C12.69003999 -0.05062584 21.71617212 5.32567759 30.5625 10.6875 C32.68021378 11.94661823 34.79873672 13.20437631 36.91796875 14.4609375 C38.01544434 15.11416992 39.11291992 15.76740234 40.24365234 16.44042969 C45.91902028 19.79237985 51.64713185 23.05139182 57.375 26.3125 C58.55450858 26.98515582 59.73395163 27.65792659 60.91333008 28.33081055 C63.29250043 29.68803676 65.67198334 31.04471226 68.05175781 32.40087891 C71.60552103 34.42617703 75.1584647 36.4529081 78.7109375 38.48046875 C79.58518623 38.97943413 79.58518623 38.97943413 80.47709656 39.48847961 C84.54763982 41.81225448 88.61587486 44.14003474 92.68359375 46.46875 C96.79910008 48.82479152 100.9187845 51.17292848 105.04534912 53.50953674 C106.8290366 54.52069467 108.61088977 55.53500478 110.39208984 56.55053711 C112.59632619 57.80684169 114.80347519 59.05805641 117.01416016 60.30297852 C129.47652863 67.43021569 138.9281565 74.41748343 143.79454041 88.29205322 C145.272365 93.88945813 145.18037203 99.42175806 145.14257812 105.1796875 C145.14801217 106.52305861 145.15514196 107.86642375 145.16381836 109.20977783 C145.18190282 112.82560364 145.17504669 116.44096797 145.16230202 120.05680084 C145.15209638 123.86063276 145.1615885 127.66442807 145.16784668 131.46826172 C145.17510127 137.85326144 145.16559324 144.23807542 145.14648438 150.62304688 C145.12471972 157.97985916 145.13177265 165.33622785 145.15379 172.6930294 C145.17200678 179.03650873 145.17447182 185.37985537 145.16403532 191.72335243 C145.15783469 195.50019209 145.15686916 199.27682401 145.17018127 203.0536499 C145.18183127 206.60635647 145.17354993 210.15849733 145.15060425 213.71114349 C145.1428886 215.61855821 145.15459453 217.52602141 145.16711426 219.43341064 C145.05336018 231.13606453 142.05472191 241.02293946 133.625 249.4375 C127.29760883 254.82385415 120.09305368 258.76244954 112.875 262.8125 C111.63800841 263.51226102 110.40136158 264.21263178 109.16503906 264.91357422 C106.59966901 266.36733336 104.03285212 267.8184848 101.46484375 269.26757812 C96.00846435 272.34841441 90.56612103 275.45378735 85.1255188 278.56237793 C83.95516698 279.23103381 82.78465412 279.8994079 81.61398315 280.56750488 C73.52616445 285.18350205 65.47122214 289.85298534 57.4375 294.5625 C49.04540922 299.47782724 40.60754513 304.30489589 32.125 309.0625 C31.09221924 309.64273926 30.05943848 310.22297852 28.99536133 310.82080078 C11.47997525 320.6049494 11.47997525 320.6049494 0.5625 320.75 C-0.4884082 320.79350586 -0.4884082 320.79350586 -1.56054688 320.83789062 C-12.34999912 320.96459603 -21.33765696 315.62721636 -30.3125 310.1875 C-32.43021378 308.92838177 -34.54873672 307.67062369 -36.66796875 306.4140625 C-37.76544434 305.76083008 -38.86291992 305.10759766 -39.99365234 304.43457031 C-45.66902028 301.08262015 -51.39713185 297.82360818 -57.125 294.5625 C-58.30450858 293.88984418 -59.48395163 293.21707341 -60.66333008 292.54418945 C-63.04250043 291.18696324 -65.42198334 289.83028774 -67.80175781 288.47412109 C-71.35552103 286.44882297 -74.9084647 284.4220919 -78.4609375 282.39453125 C-79.04376999 282.06188766 -79.62660248 281.72924408 -80.22709656 281.38652039 C-84.29763982 279.06274552 -88.36587486 276.73496526 -92.43359375 274.40625 C-96.54910008 272.05020848 -100.6687845 269.70207152 -104.79534912 267.36546326 C-106.5790366 266.35430533 -108.36088977 265.33999522 -110.14208984 264.32446289 C-112.34632619 263.06815831 -114.55347519 261.81694359 -116.76416016 260.57202148 C-129.22652863 253.44478431 -138.6781565 246.45751657 -143.54454041 232.58294678 C-145.022365 226.98554187 -144.93037203 221.45324194 -144.89257812 215.6953125 C-144.89801217 214.35194139 -144.90514196 213.00857625 -144.91381836 211.66522217 C-144.93190282 208.04939636 -144.92504669 204.43403203 -144.91230202 200.81819916 C-144.90209638 197.01436724 -144.9115885 193.21057193 -144.91784668 189.40673828 C-144.92510127 183.02173856 -144.91559324 176.63692458 -144.89648438 170.25195312 C-144.87471972 162.89514084 -144.88177265 155.53877215 -144.90379 148.1819706 C-144.92200678 141.83849127 -144.92447182 135.49514463 -144.91403532 129.15164757 C-144.90783469 125.37480791 -144.90686916 121.59817599 -144.92018127 117.8213501 C-144.93183127 114.26864353 -144.92354993 110.71650267 -144.90060425 107.16385651 C-144.8928886 105.25644179 -144.90459453 103.34897859 -144.91711426 101.44158936 C-144.80336018 89.73893547 -141.80472191 79.85206054 -133.375 71.4375 C-127.01549698 66.01753666 -119.75888754 62.07003493 -112.5 58 C-111.25483828 57.29622723 -110.0100534 56.59178738 -108.765625 55.88671875 C-106.85028427 54.80154326 -104.93476768 53.71669855 -103.01812744 52.63381958 C-96.78039113 49.10870854 -90.5759851 45.52681539 -84.375 41.9375 C-74.22854682 36.07319925 -64.06253572 30.24383872 -53.87768555 24.4465332 C-47.94494659 21.06683352 -42.03099372 17.65896296 -36.14453125 14.19921875 C-34.96430129 13.50827803 -33.78396426 12.81752018 -32.60351562 12.12695312 C-30.39366715 10.83187326 -28.18765413 9.53021677 -25.98632812 8.22070312 C-17.42717065 3.21544469 -10.00184699 -0.10340255 0 0 Z M-101.375 104.4375 C-103.06321048 107.81392095 -102.55986378 111.64062942 -102.578125 115.35546875 C-102.58382507 116.24607498 -102.58952515 117.13668121 -102.59539795 118.05427551 C-102.60485582 119.94315399 -102.61138505 121.83204903 -102.61523438 123.72094727 C-102.62490303 126.59616424 -102.65590335 129.47065513 -102.6875 132.34570312 C-102.69403385 134.18228743 -102.69928282 136.01887684 -102.703125 137.85546875 C-102.7154718 138.70989059 -102.7278186 139.56431244 -102.74053955 140.44462585 C-102.72053897 145.868575 -102.14126257 149.71569385 -99.375 154.4375 C-96.74847337 156.68883449 -96.74847337 156.68883449 -93.55078125 158.3671875 C-92.69206169 158.861689 -92.69206169 158.861689 -91.81599426 159.36618042 C-90.61180479 160.05840015 -89.40303027 160.74269943 -88.19000244 161.41931152 C-85.29747422 163.0419754 -82.45636259 164.75085499 -79.60546875 166.4453125 C-77.26004074 167.82152681 -74.91105895 169.19163744 -72.5625 170.5625 C-71.28704092 171.30847671 -70.01165162 172.05457276 -68.73632812 172.80078125 C-62.88538279 176.22315213 -57.03061323 179.63897108 -51.17578125 183.0546875 C-50.20995117 183.61824951 -49.24412109 184.18181152 -48.24902344 184.76245117 C-46.33790549 185.87629591 -44.42579968 186.98844748 -42.51269531 188.09887695 C-37.54564125 190.98550913 -32.59554367 193.89706232 -27.67172241 196.85671997 C-25.0353938 198.44008727 -22.3939462 200.01480851 -19.75219727 201.58911133 C-18.47295519 202.35472443 -17.196192 203.12449686 -15.92211914 203.89868164 C-14.14044869 204.98090771 -12.35062935 206.04833249 -10.55859375 207.11328125 C-9.53306396 207.73114502 -8.50753418 208.34900879 -7.45092773 208.9855957 C-3.92593285 210.64946939 -1.27460101 211.31667728 2.625 211.4375 C5.72579872 210.35514668 5.72579872 210.35514668 8.66015625 208.4921875 C9.78736084 207.83420166 10.91456543 207.17621582 12.07592773 206.49829102 C13.28000139 205.77005141 14.48385343 205.04144528 15.6875 204.3125 C16.94699044 203.56852269 18.20750298 202.82627318 19.46899414 202.08569336 C22.62216238 200.22934577 25.7626417 198.35265796 28.90002441 196.4697876 C31.37080465 194.9911836 33.85288111 193.53209069 36.3359375 192.07421875 C39.84648224 190.01146526 43.3513709 187.93964746 46.8515625 185.859375 C53.06502698 182.17033608 59.29907717 178.5167708 65.53451538 174.86505127 C67.41727513 173.76185074 69.29920923 172.65725482 71.1809082 171.55224609 C76.4891183 168.43635134 81.80063128 165.32794744 87.14453125 162.2734375 C87.93819092 161.81670654 88.73185059 161.35997559 89.54956055 160.8894043 C90.95973791 160.07909601 92.37366384 159.27525618 93.79223633 158.47973633 C97.21586582 156.5047576 99.55456258 154.81136376 101.625 151.4375 C102.05446399 149.14245171 102.05446399 149.14245171 101.96557617 146.66894531 C101.96523628 145.25793549 101.96523628 145.25793549 101.96488953 143.81842041 C101.94940567 142.81099792 101.93392181 141.80357544 101.91796875 140.765625 C101.91372391 139.72807068 101.90947906 138.69051636 101.90510559 137.621521 C101.88832223 134.30991592 101.85066992 130.99892093 101.8125 127.6875 C101.79745275 125.44141504 101.78376442 123.19532054 101.77148438 120.94921875 C101.73841986 115.44510459 101.6882236 109.94134588 101.625 104.4375 C97.40443806 105.0277614 94.45929527 106.48174884 90.8125 108.65625 C89.97652283 109.15040405 89.97652283 109.15040405 89.12365723 109.65454102 C87.28677794 110.74228499 85.45602098 111.83992844 83.625 112.9375 C82.32662507 113.70844604 81.0277886 114.47861526 79.72851562 115.24804688 C77.02945032 116.84725422 74.33240268 118.44978746 71.63671875 120.0546875 C66.07622195 123.36179732 60.49197741 126.62818726 54.90756226 129.89468384 C51.92319546 131.64056728 48.94002136 133.38848441 45.95703125 135.13671875 C45.36312088 135.48474045 44.76921051 135.83276215 44.15730286 136.19132996 C40.31837536 138.44187373 36.48293572 140.69826634 32.64950562 142.9581604 C30.00718822 144.51558726 27.36374441 146.07109661 24.72021484 147.62646484 C23.46688485 148.36460467 22.21410031 149.10367158 20.96191406 149.84375 C17.19785122 152.06824776 13.41922758 154.26487974 9.625 156.4375 C8.83818848 156.89946777 8.05137695 157.36143555 7.24072266 157.83740234 C4.37485762 159.42382704 2.07801584 160.41755983 -1.21484375 160.5625 C-6.15311364 158.80450034 -10.46228434 156.14200231 -14.9375 153.4375 C-17.10146625 152.15218168 -19.2655331 150.86703273 -21.4296875 149.58203125 C-22.57661903 148.89685071 -23.72342733 148.21146383 -24.87011719 147.52587891 C-30.1443009 144.37723061 -35.45070735 141.28354775 -40.75341797 138.18328857 C-43.7981047 136.40218793 -46.84038696 134.61699071 -49.8828125 132.83203125 C-51.12010979 132.10626994 -52.35741453 131.38052132 -53.59472656 130.65478516 C-54.21416138 130.29145081 -54.83359619 129.92811646 -55.47180176 129.55377197 C-60.6692195 126.50536029 -65.86710829 123.45775195 -71.06509399 120.41030884 C-72.87118627 119.35138035 -74.67717591 118.292277 -76.4831543 117.2331543 C-78.70265238 115.93183811 -80.92323008 114.63236109 -83.14501953 113.33496094 C-85.36160827 112.03281977 -87.57057677 110.71764562 -89.77294922 109.39160156 C-90.84689941 108.74932617 -91.92084961 108.10705078 -93.02734375 107.4453125 C-93.98503662 106.86668457 -94.94272949 106.28805664 -95.92944336 105.69189453 C-98.36180596 104.20930381 -98.36180596 104.20930381 -101.375 104.4375 Z M-100.375 173.4375 C-103.840524 176.903024 -102.67889334 181.96366384 -102.69726562 186.64648438 C-102.69509033 187.38213623 -102.69291504 188.11778809 -102.69067383 188.87573242 C-102.68753626 191.09930452 -102.71088531 193.32151659 -102.73632812 195.54492188 C-102.73860358 196.9713525 -102.73930347 198.39778668 -102.73828125 199.82421875 C-102.74126221 201.11545654 -102.74424316 202.40669434 -102.74731445 203.73706055 C-102.23737732 208.80533407 -101.09975952 212.97718402 -97.08203125 216.37890625 C-96.12683594 216.91386719 -95.17164063 217.44882813 -94.1875 218 C-93.64359619 218.31316162 -93.09969238 218.62632324 -92.53930664 218.94897461 C-91.2594736 219.68467781 -89.97476921 220.41194174 -88.68652344 221.1328125 C-85.97411103 222.66377278 -83.28783806 224.23613317 -80.6015625 225.8125 C-75.54373014 228.78001923 -70.47701298 231.73175369 -65.40576172 234.67626953 C-60.39164873 237.59006131 -55.38337892 240.51386643 -50.375 243.4375 C-49.385 242.7775 -48.395 242.1175 -47.375 241.4375 C-47.08243951 238.94104774 -46.97867092 236.69609131 -47.01171875 234.19921875 C-47.01122025 233.48143753 -47.01072174 232.76365631 -47.01020813 232.02412415 C-47.01255045 230.50344073 -47.0222884 228.98275358 -47.03881836 227.4621582 C-47.06230406 225.14433707 -47.05939432 222.82767465 -47.05273438 220.50976562 C-47.05831499 219.03124319 -47.06542728 217.55272558 -47.07421875 216.07421875 C-47.07330734 215.38446457 -47.07239594 214.69471039 -47.07145691 213.98405457 C-47.14018765 209.26944511 -47.48737649 205.37538658 -50.87866211 201.89379883 C-56.9836399 197.53240464 -63.40940692 193.8147712 -69.9375 190.125 C-72.25269508 188.80711408 -74.56574456 187.48551972 -76.87890625 186.1640625 C-77.99152832 185.52887695 -79.10415039 184.89369141 -80.25048828 184.23925781 C-84.94477447 181.53228547 -89.58216474 178.73399034 -94.18579102 175.87573242 C-97.06660711 173.99602016 -97.06660711 173.99602016 -100.375 173.4375 Z M95.89208984 174.72583008 C94.80105957 175.37962646 93.7100293 176.03342285 92.5859375 176.70703125 C91.99184586 177.05902588 91.39775421 177.41102051 90.78565979 177.77368164 C88.85117929 178.92282874 86.92562353 180.08608304 85 181.25 C83.67966405 182.03891941 82.35878041 182.82692293 81.03735352 183.61401367 C78.42580151 185.17069947 75.81722745 186.7322105 73.21044922 188.296875 C70.17890272 190.11246219 67.12955158 191.89435048 64.06640625 193.65625 C63.28797363 194.10508545 62.50954102 194.5539209 61.70751953 195.01635742 C60.32399243 195.81205085 58.93839231 196.60415575 57.55029297 197.3918457 C52.96193182 200.05465758 49.34233568 202.28549296 47.625 207.4375 C47.50462131 209.99992453 47.43696388 212.53442391 47.421875 215.09765625 C47.41617493 215.84333359 47.41047485 216.58901093 47.40460205 217.35728455 C47.39516684 218.93161606 47.38862394 220.5059672 47.38476562 222.08032227 C47.3750216 224.4946488 47.34397046 226.90813744 47.3125 229.32226562 C47.30597342 230.85155744 47.3007216 232.38085534 47.296875 233.91015625 C47.2845282 234.63413101 47.2721814 235.35810577 47.25946045 236.10401917 C47.23464925 238.35337691 47.23464925 238.35337691 47.625 241.4375 C48.615 242.0975 49.605 242.7575 50.625 243.4375 C57.49494967 239.49053036 64.35974637 235.53482743 71.21687317 231.56562805 C74.13156607 229.8785662 77.0477949 228.19438521 79.96728516 226.515625 C83.00378064 224.76848514 86.03384949 223.01069442 89.0625 221.25 C89.98434082 220.72253174 90.90618164 220.19506348 91.85595703 219.65161133 C92.70657715 219.1542749 93.55719727 218.65693848 94.43359375 218.14453125 C95.17407959 217.7163208 95.91456543 217.28811035 96.67749023 216.84692383 C99.02219263 215.15004945 100.25424239 214.01359733 101.625 211.4375 C101.88187989 208.53319198 101.97487291 205.85159168 101.91796875 202.953125 C101.91160149 201.72973419 101.91160149 201.72973419 101.90510559 200.48162842 C101.88834715 197.88324616 101.85070097 195.28564681 101.8125 192.6875 C101.79744946 190.92318831 101.7837617 189.15886442 101.77148438 187.39453125 C101.73845301 183.07522035 101.68669086 178.7564928 101.625 174.4375 C98.62401135 173.05352386 98.62401135 173.05352386 95.89208984 174.72583008 Z " fill="#ED8D13" transform="translate(160.375,-0.4375)"/>
<path d="M0 0 C1.01707031 -0.0299707 1.01707031 -0.0299707 2.0546875 -0.06054688 C12.69003999 -0.05062584 21.71617212 5.32567759 30.5625 10.6875 C32.68021378 11.94661823 34.79873672 13.20437631 36.91796875 14.4609375 C38.01544434 15.11416992 39.11291992 15.76740234 40.24365234 16.44042969 C45.91902028 19.79237985 51.64713185 23.05139182 57.375 26.3125 C58.55450858 26.98515582 59.73395163 27.65792659 60.91333008 28.33081055 C63.29250043 29.68803676 65.67198334 31.04471226 68.05175781 32.40087891 C71.60552103 34.42617703 75.1584647 36.4529081 78.7109375 38.48046875 C79.58518623 38.97943413 79.58518623 38.97943413 80.47709656 39.48847961 C84.54763982 41.81225448 88.61587486 44.14003474 92.68359375 46.46875 C96.79910008 48.82479152 100.9187845 51.17292848 105.04534912 53.50953674 C106.8290366 54.52069467 108.61088977 55.53500478 110.39208984 56.55053711 C112.59632619 57.80684169 114.80347519 59.05805641 117.01416016 60.30297852 C129.12542335 67.22941833 139.39823229 74.46376253 143.9296875 88.19140625 C146.809044 101.63379533 144.52190513 114.85069193 137.8125 126.8125 C129.81479093 139.06514788 115.03900366 148.85464725 101.625 154.4375 C100.965 154.1075 100.305 153.7775 99.625 153.4375 C99.955 152.7775 100.285 152.1175 100.625 151.4375 C100.74305177 149.9267243 100.80196449 148.41111169 100.83032227 146.89599609 C100.85026749 145.95517181 100.87021271 145.01434753 100.89076233 144.04501343 C100.90747482 143.02726837 100.92418732 142.00952332 100.94140625 140.9609375 C100.9725779 139.40036118 100.9725779 139.40036118 101.00437927 137.80825806 C101.06989872 134.47640751 101.12877092 131.1444765 101.1875 127.8125 C101.23068294 125.55728326 101.27429715 123.30207473 101.31835938 121.046875 C101.42558252 115.51050236 101.52734446 109.97404922 101.625 104.4375 C94.12203037 108.09118299 86.83482324 111.94413497 79.6875 116.25 C77.76338025 117.39773818 75.83888112 118.5448405 73.9140625 119.69140625 C72.89860352 120.29742676 71.88314453 120.90344727 70.83691406 121.52783203 C65.09488508 124.9417991 59.3279247 128.31325726 53.5625 131.6875 C51.10927804 133.12353237 48.65615532 134.55973406 46.203125 135.99609375 C45.58732574 136.35661835 44.97152649 136.71714294 44.33706665 137.08859253 C40.4272071 139.37869026 36.52117411 141.67518367 32.61778259 143.97628784 C29.98367028 145.52898181 27.34844742 147.07978569 24.71316528 148.63049316 C23.4628386 149.36694544 22.21304669 150.10430653 20.96383667 150.84265137 C17.19913494 153.06751795 13.41986761 155.26451325 9.625 157.4375 C8.44478271 158.13045166 8.44478271 158.13045166 7.24072266 158.83740234 C4.37485762 160.42382704 2.07801584 161.41755983 -1.21484375 161.5625 C-6.15311364 159.80450034 -10.46228434 157.14200231 -14.9375 154.4375 C-17.10146625 153.15218168 -19.2655331 151.86703273 -21.4296875 150.58203125 C-22.57661903 149.89685071 -23.72342733 149.21146383 -24.87011719 148.52587891 C-30.1443009 145.37723061 -35.45070735 142.28354775 -40.75341797 139.18328857 C-43.7981047 137.40218793 -46.84038696 135.61699071 -49.8828125 133.83203125 C-51.12010979 133.10626994 -52.35741453 132.38052132 -53.59472656 131.65478516 C-54.52387878 131.10978363 -54.52387878 131.10978363 -55.47180176 130.55377197 C-60.6692195 127.50536029 -65.86710829 124.45775195 -71.06509399 121.41030884 C-72.87118627 120.35138035 -74.67717591 119.292277 -76.4831543 118.2331543 C-77.60375244 117.57613525 -78.72435059 116.91911621 -79.87890625 116.2421875 C-81.49563232 115.29230957 -81.49563232 115.29230957 -83.14501953 114.32324219 C-85.34806021 113.03705276 -87.55769645 111.76211048 -89.77294922 110.49707031 C-91.38387451 109.5742627 -91.38387451 109.5742627 -93.02734375 108.6328125 C-93.98503662 108.08898926 -94.94272949 107.54516602 -95.92944336 106.98486328 C-98.09781792 105.61287986 -99.58680661 104.23816692 -101.375 102.4375 C-104.47507201 101.23700593 -104.47507201 101.23700593 -107.375 100.4375 C-107.375 99.7775 -107.375 99.1175 -107.375 98.4375 C-108.365 98.7675 -109.355 99.0975 -110.375 99.4375 C-110.375 98.7775 -110.375 98.1175 -110.375 97.4375 C-111.014375 97.623125 -111.65375 97.80875 -112.3125 98 C-113.3334375 98.2165625 -113.3334375 98.2165625 -114.375 98.4375 C-114.87 97.9425 -114.87 97.9425 -115.375 97.4375 C-116.72247084 97.20674918 -118.07877565 97.02596937 -119.4375 96.875 C-120.736875 96.730625 -122.03625 96.58625 -123.375 96.4375 C-123.375 97.0975 -123.375 97.7575 -123.375 98.4375 C-124.695 98.1075 -126.015 97.7775 -127.375 97.4375 C-127.705 98.0975 -128.035 98.7575 -128.375 99.4375 C-129.86 99.9325 -129.86 99.9325 -131.375 100.4375 C-132.89675475 101.89734575 -132.89675475 101.89734575 -134.3125 103.6875 C-134.83328125 104.31269531 -135.3540625 104.93789062 -135.890625 105.58203125 C-137.14788947 107.15361184 -138.36043908 108.7608039 -139.5625 110.375 C-140.160625 111.055625 -140.75875 111.73625 -141.375 112.4375 C-142.365 112.4375 -143.355 112.4375 -144.375 112.4375 C-144.91554565 97.50804492 -145.10577377 85.8380199 -135.546875 73.60546875 C-128.87474168 66.94533567 -120.66018398 62.57538895 -112.5 58 C-111.25483828 57.29622723 -110.0100534 56.59178738 -108.765625 55.88671875 C-106.85028427 54.80154326 -104.93476768 53.71669855 -103.01812744 52.63381958 C-96.78039113 49.10870854 -90.5759851 45.52681539 -84.375 41.9375 C-74.22854682 36.07319925 -64.06253572 30.24383872 -53.87768555 24.4465332 C-47.94494659 21.06683352 -42.03099372 17.65896296 -36.14453125 14.19921875 C-34.96430129 13.50827803 -33.78396426 12.81752018 -32.60351562 12.12695312 C-30.39366715 10.83187326 -28.18765413 9.53021677 -25.98632812 8.22070312 C-17.42717065 3.21544469 -10.00184699 -0.10340255 0 0 Z " fill="#E7691A" transform="translate(160.375,-0.4375)"/>
</svg>
