<?xml version="1.0" standalone="no"?>
<!DOCTYPE svg PUBLIC "-//W3C//DTD SVG 20010904//EN"
 "http://www.w3.org/TR/2001/REC-SVG-20010904/DTD/svg10.dtd">
<svg version="1.0" xmlns="http://www.w3.org/2000/svg"
 width="320.000000pt" height="320.000000pt" viewBox="0 0 320.000000 320.000000"
 preserveAspectRatio="xMidYMid meet">

<g transform="translate(0.000000,320.000000) scale(0.100000,-0.100000)"
fill="#000000" stroke="none">
<path d="M1630 3179 c0 -5 5 -7 10 -4 6 3 10 1 10 -4 0 -6 -4 -11 -9 -11 -5 0
-11 -11 -13 -25 -3 -13 -2 -22 2 -20 4 2 7 -11 7 -30 0 -19 -3 -32 -7 -30 -4
2 -7 -2 -7 -10 0 -8 5 -11 10 -8 6 4 7 1 2 -7 -10 -16 -17 -62 -19 -122 0 -25
-4 -44 -8 -42 -5 3 -8 -4 -8 -15 0 -12 4 -21 9 -21 5 0 7 -9 4 -20 -3 -11 -9
-20 -13 -20 -5 0 -5 -13 0 -29 5 -20 4 -38 -5 -55 -7 -14 -12 -43 -11 -66 2
-22 0 -40 -4 -40 -3 0 -6 -24 -5 -52 1 -29 -3 -56 -9 -60 -8 -5 -7 -8 2 -8 15
0 16 -27 1 -32 -9 -3 -9 -9 -1 -24 8 -15 7 -27 -2 -46 -11 -20 -11 -29 -2 -38
8 -9 8 -14 -1 -17 -7 -3 -13 -9 -13 -14 0 -6 6 -7 13 -4 6 4 4 0 -6 -8 -14
-12 -15 -20 -8 -40 6 -16 7 -29 1 -32 -5 -3 -7 -12 -3 -20 3 -9 0 -22 -6 -29
-9 -11 -9 -15 1 -18 10 -4 10 -8 -1 -22 -9 -10 -11 -20 -5 -24 14 -11 15 -32
1 -26 -8 3 -13 -3 -13 -16 0 -11 4 -20 8 -20 10 0 5 -54 -6 -61 -12 -9 -14
-51 -4 -65 5 -7 3 -24 -4 -40 -30 -74 -16 -105 99 -220 l41 -42 39 23 c21 12
232 135 470 273 271 158 437 250 447 246 14 -5 16 -36 16 -236 0 -136 -4 -237
-10 -248 -19 -36 219 111 285 176 105 103 154 234 141 379 -8 92 -59 198 -120
252 -49 43 -1123 659 -1195 685 -52 20 -101 23 -101 7z"/>
<path d="M325 2215 c-58 -22 -109 -67 -136 -122 l-24 -48 -3 -528 c-2 -334 1
-549 8 -584 15 -82 52 -156 103 -205 33 -31 307 -200 398 -244 3 -2 5 13 4 32
-1 18 2 34 6 34 5 0 9 5 9 11 0 5 -3 8 -8 5 -4 -2 -7 17 -7 42 1 26 -2 55 -7
64 -4 9 -4 19 1 22 7 5 8 81 1 81 -1 0 -3 8 -5 17 -2 10 2 15 9 12 7 -2 12 4
12 15 0 11 -3 18 -6 16 -9 -5 -5 88 4 103 4 6 3 12 -2 12 -14 0 -21 37 -10 48
7 7 2 14 -13 22 -13 7 -36 24 -51 38 l-28 26 0 193 c0 208 3 218 50 193 34
-18 57 -20 57 -4 0 8 -3 14 -7 14 -4 0 -6 30 -6 66 1 61 0 67 -24 79 -14 7
-35 24 -48 38 -23 24 -23 25 -20 271 l3 246 -50 21 c-64 28 -157 34 -210 14z"/>
</g>
</svg>
